<svg xmlns="http://www.w3.org/2000/svg" width="1080" height="1600" viewBox="0 0 1080 1600" role="img" aria-labelledby="title desc"><title id="title">Pocket Bricks smartphone screenshot</title><desc id="desc">A monochrome old-button-phone inspired falling-block game running on a smartphone screen with touch controls.</desc><defs><linearGradient id="bg" x1="0" x2="0" y1="0" y2="1"><stop offset="0" stop-color="#2b2b2b"/><stop offset="1" stop-color="#050505"/></linearGradient><linearGradient id="body" x1="0" x2="1" y1="0" y2="1"><stop offset="0" stop-color="#242424"/><stop offset="1" stop-color="#080808"/></linearGradient><linearGradient id="button" x1="0" x2="0" y1="0" y2="1"><stop offset="0" stop-color="#4a4a4a"/><stop offset="1" stop-color="#151515"/></linearGradient></defs><rect width="1080" height="1600" fill="url(#bg)"/><circle cx="540" cy="120" r="520" fill="#fff" opacity=".055"/><rect x="260" y="64" width="560" height="1472" rx="64" fill="url(#body)" stroke="#3b3b3b" stroke-width="2"/><rect x="298" y="104" width="484" height="36" rx="18" fill="#101010" stroke="#3a3a3a"/><text x="336" y="128" fill="#e9e6d8" opacity=".7" font-family="monospace" font-size="18" letter-spacing="8">POCKET</text><text x="625" y="128" fill="#e9e6d8" opacity=".7" font-family="monospace" font-size="18" letter-spacing="8">BRICKS</text><rect x="306" y="174" width="468" height="736" rx="36" fill="#070707" stroke="#474747" stroke-width="2"/><rect x="330" y="198" width="420" height="688" rx="18" fill="#b5c88e" stroke="#050505" stroke-width="8"/><g fill="#132318" font-family="monospace"><rect x="356" y="230" width="170" height="58" fill="none" stroke="#38513a" stroke-width="2" opacity=".75"/><rect x="554" y="230" width="170" height="58" fill="none" stroke="#38513a" stroke-width="2" opacity=".75"/><text x="372" y="254" font-size="17" letter-spacing="4" opacity=".7">SCORE</text><text x="570" y="254" font-size="17" letter-spacing="4" opacity=".7">BEST</text><text x="372" y="278" font-size="25" font-weight="700">001240</text><text x="570" y="278" font-size="25" font-weight="700">004880</text></g><g transform="translate(356 318)"><rect width="250" height="500" fill="#b5c88e" stroke="#132318" stroke-width="5"/><g fill="#132318"><rect x="105" y="105" width="20" height="20"/><rect x="80" y="130" width="20" height="20"/><rect x="105" y="130" width="20" height="20"/><rect x="130" y="130" width="20" height="20"/><rect x="5" y="430" width="20" height="20"/><rect x="30" y="430" width="20" height="20"/><rect x="55" y="430" width="20" height="20"/><rect x="130" y="430" width="20" height="20"/><rect x="155" y="430" width="20" height="20"/><rect x="180" y="430" width="20" height="20"/><rect x="205" y="430" width="20" height="20"/><rect x="5" y="455" width="20" height="20"/><rect x="30" y="455" width="20" height="20"/><rect x="80" y="455" width="20" height="20"/><rect x="105" y="455" width="20" height="20"/><rect x="130" y="455" width="20" height="20"/><rect x="180" y="455" width="20" height="20"/><rect x="205" y="455" width="20" height="20"/><rect x="230" y="455" width="15" height="20"/><rect x="5" y="480" width="20" height="15"/><rect x="30" y="480" width="20" height="15"/><rect x="55" y="480" width="20" height="15"/><rect x="80" y="480" width="20" height="15"/><rect x="105" y="480" width="20" height="15"/><rect x="130" y="480" width="20" height="15"/><rect x="155" y="480" width="20" height="15"/><rect x="180" y="480" width="20" height="15"/><rect x="205" y="480" width="20" height="15"/></g></g><g transform="translate(628 318)" fill="#132318" font-family="monospace"><text x="0" y="0" font-size="18" letter-spacing="5" opacity=".7">NEXT</text><rect x="0" y="16" width="90" height="90" fill="none" stroke="#38513a" stroke-width="2" opacity=".75"/><rect x="21" y="48" width="18" height="18"/><rect x="39" y="48" width="18" height="18"/><rect x="39" y="66" width="18" height="18"/><rect x="57" y="66" width="18" height="18"/><rect x="0" y="136" width="90" height="58" fill="none" stroke="#38513a" stroke-width="2" opacity=".75"/><text x="12" y="160" font-size="17" letter-spacing="4" opacity=".7">LINES</text><text x="16" y="185" font-size="28" font-weight="700">018</text><rect x="0" y="224" width="90" height="58" fill="none" stroke="#38513a" stroke-width="2" opacity=".75"/><text x="12" y="248" font-size="17" letter-spacing="4" opacity=".7">LEVEL</text><text x="26" y="273" font-size="28" font-weight="700">03</text></g><text x="365" y="858" fill="#132318" font-family="monospace" font-size="18" font-weight="700" letter-spacing="3">PLAYING — KEEP STACK LOW</text><g font-family="monospace" font-size="20" font-weight="700" letter-spacing="2" fill="#f5f4ec"><rect x="306" y="946" width="138" height="48" rx="24" fill="url(#button)" stroke="#494949"/><rect x="471" y="946" width="138" height="48" rx="24" fill="url(#button)" stroke="#494949"/><rect x="636" y="946" width="138" height="48" rx="24" fill="url(#button)" stroke="#494949"/><text x="342" y="977">START</text><text x="508" y="977">PAUSE</text><text x="663" y="977">SOUND</text></g><g fill="url(#button)" stroke="#555" stroke-width="2" font-family="monospace" font-size="18" font-weight="800" text-anchor="middle"><rect x="466" y="1052" width="108" height="76" rx="24"/><rect x="342" y="1134" width="108" height="76" rx="24"/><rect x="590" y="1134" width="108" height="76" rx="24"/><rect x="466" y="1216" width="108" height="76" rx="24"/><circle cx="686" cy="1320" r="74"/><text x="520" y="1098" fill="#f5f4ec">ROT</text><text x="396" y="1180" fill="#f5f4ec">LEFT</text><text x="644" y="1180" fill="#f5f4ec">RIGHT</text><text x="520" y="1262" fill="#f5f4ec">DOWN</text><text x="686" y="1328" fill="#f5f4ec">DROP</text></g><text x="540" y="1462" text-anchor="middle" fill="#f5f4ec" opacity=".45" font-family="monospace" font-size="18">Arrows or touch keypad. Space drops. P pauses.</text></svg>
